<svg width="55" height="55" viewBox="0 0 55 55" fill="none" xmlns="http://www.w3.org/2000/svg">
<path d="M51.5443 9.59379C51.1881 8.03172 49.9563 6.78796 48.3808 6.43099C48.0244 4.86215 46.787 3.62441 45.2186 3.26797C44.7931 1.39061 43.1079 0 41.1254 0H22.2563C20.9084 0 19.6413 0.52477 18.6884 1.47784C18.6801 1.48601 18.6722 1.49449 18.6642 1.50298L11.7761 8.38891C10.8235 9.34295 10.2988 10.6108 10.2988 11.9586V27.8626C8.3987 31.7845 8.62558 36.4857 10.9799 40.2212L9.64429 41.5569C8.70991 41.2374 7.6334 41.4464 6.88992 42.1899L0.968771 48.1119C0.464841 48.6158 0.187256 49.2859 0.187256 49.9986C0.187256 50.7114 0.464841 51.3815 0.968664 51.8853L3.303 54.2197C3.82326 54.7399 4.50638 54.9999 5.1897 54.9999C5.87282 54.9999 6.55625 54.7398 7.0763 54.2198L9.86612 51.431C10.1808 51.1165 10.1809 50.6063 9.86633 50.2917C9.55169 49.9769 9.04163 49.9769 8.72688 50.2915L5.93706 53.0803C5.52498 53.4923 4.85443 53.4925 4.44235 53.0803L2.10801 50.746C1.90852 50.5464 1.79852 50.281 1.79852 49.9986C1.79852 49.7162 1.90842 49.4509 2.10812 49.2513L8.02937 43.329C8.44124 42.9171 9.11253 42.9172 9.52505 43.329L11.8591 45.663C12.2714 46.0759 12.2716 46.747 11.8594 47.1591L11.0054 48.0131C10.6907 48.3277 10.6907 48.8379 11.0054 49.1525C11.32 49.4671 11.8301 49.4672 12.1448 49.1525L12.9987 48.2985C13.7423 47.555 13.9513 46.4785 13.6317 45.544L14.9673 44.2084C16.2508 45.0173 17.6482 45.5751 19.089 45.8818C19.3494 45.9999 19.6177 46.0919 19.8931 46.1541C20.3196 48.0308 22.0048 49.4207 23.9869 49.4207H50.6143C52.9292 49.4207 54.8124 47.5369 54.8124 45.2214V13.687C54.8125 11.7048 53.4219 10.0197 51.5443 9.59379V9.59379ZM45.3236 35.7327V4.99225C46.1863 5.37103 46.8054 6.20765 46.8694 7.19746C46.873 7.24741 46.8748 7.30113 46.8748 7.36182V38.8964C46.8748 40.3228 45.7143 41.4832 44.288 41.4832H31.6332C32.0377 40.988 32.3993 40.4693 32.7182 39.9319H41.1254C43.4403 39.9319 45.3236 38.0481 45.3236 35.7327ZM19.7488 2.69722C19.714 2.88865 19.6947 3.08556 19.6947 3.28698V6.80826C19.6947 8.23465 18.5342 9.39505 17.1079 9.39505H13.5867C13.3844 9.39505 13.1867 9.41439 12.9944 9.44952L19.7488 2.69722ZM11.9102 12.7006C11.9103 12.6944 11.9112 12.6883 11.9112 12.6819C11.9112 11.7581 12.6628 11.0064 13.5867 11.0064H17.1079C19.4228 11.0064 21.3061 9.12316 21.3061 6.80826V3.28698C21.3061 2.36313 22.0578 1.61148 22.9816 1.61148C22.9827 1.61148 22.9836 1.61137 22.9847 1.61137H41.1254C42.4855 1.61137 43.6192 2.67262 43.7069 4.03466C43.7104 4.08429 43.7122 4.13779 43.7122 4.19816V35.7327C43.7122 37.1596 42.5517 38.3206 41.1254 38.3206H33.5243C35.4393 33.6988 34.5218 28.1704 30.77 24.4185C25.8019 19.4507 17.7188 19.4508 12.7509 24.4185C12.4526 24.7168 12.1726 25.0266 11.9102 25.3461V12.7006ZM13.8905 25.558C16.0604 23.3879 18.9101 22.3033 21.7606 22.3033C24.6104 22.3033 27.4611 23.3885 29.6307 25.558C33.9702 29.8975 33.9702 36.9585 29.6307 41.2981C25.2911 45.6376 18.23 45.6376 13.8906 41.2981C9.55083 36.9585 9.55083 29.8976 13.8905 25.558V25.558ZM12.6859 44.211L10.9772 42.5023L11.9373 41.5424C12.192 41.8502 12.4627 42.1493 12.7509 42.4375C13.039 42.7256 13.3381 42.9963 13.646 43.2509L12.6859 44.211ZM53.2012 45.2215C53.2012 46.6485 52.0406 47.8094 50.6144 47.8094H23.987C22.9339 47.8094 22.0168 47.1731 21.6156 46.2571H47.4507C49.7663 46.2571 51.6499 44.3739 51.6499 42.059V18.7703C51.6499 18.3254 51.2893 17.9646 50.8443 17.9646C50.3992 17.9646 50.0386 18.3254 50.0386 18.7703V42.059C50.0386 43.4853 48.8776 44.6457 47.4507 44.6457H27.8033C28.5971 44.2186 29.3552 43.702 30.0617 43.0945H44.2879C46.6028 43.0945 48.4861 41.2113 48.4861 38.8964V8.15386C49.4021 8.55499 50.0385 9.47164 50.0385 10.5244V15.554C50.0385 15.999 50.3991 16.3597 50.8442 16.3597C51.2892 16.3597 51.6498 15.999 51.6498 15.554V11.317C52.5652 11.7184 53.2011 12.6348 53.2011 13.687V45.2215H53.2012Z" fill="#B69D74"/>
<path d="M21.7604 42.6715C24.2294 42.6715 26.5508 41.7101 28.2967 39.9642C31.9006 36.3602 31.9006 30.496 28.2967 26.892C26.5508 25.1461 24.2295 24.1847 21.7604 24.1847C19.2914 24.1847 16.9701 25.1461 15.2242 26.892C11.6202 30.496 11.6202 36.3602 15.2242 39.9642C16.9702 41.7101 19.2914 42.6715 21.7604 42.6715V42.6715ZM16.3638 28.0314C17.8052 26.5898 19.7219 25.796 21.7604 25.796C23.7991 25.796 25.7157 26.5898 27.1571 28.0314C30.1329 31.0071 30.1329 35.849 27.1571 38.8248C25.7157 40.2663 23.799 41.0602 21.7604 41.0602C19.7218 41.0602 17.8052 40.2663 16.3638 38.8248C13.388 35.849 13.388 31.0071 16.3638 28.0314Z" fill="#B69D74"/>
<path d="M15.0535 19.285C15.4694 19.4434 15.9349 19.2347 16.0933 18.8189L16.3967 18.0223H18.5168L18.8166 18.8166C18.9383 19.1392 19.2449 19.3381 19.5705 19.3381C19.6651 19.3381 19.7612 19.3213 19.8549 19.286C20.2712 19.1289 20.4813 18.664 20.3241 18.2477L18.3306 12.9654C18.328 12.958 18.325 12.9506 18.3219 12.9432C18.1783 12.5943 17.8419 12.3689 17.4647 12.3689C17.4644 12.3689 17.4639 12.3689 17.4636 12.3689C17.0859 12.3693 16.7496 12.5955 16.6065 12.945C16.604 12.951 16.6015 12.9572 16.5993 12.9633L14.5874 18.2452C14.429 18.6612 14.6378 19.1267 15.0535 19.285V19.285ZM17.9086 16.4109H17.0103L17.4615 15.2263L17.9086 16.4109Z" fill="#B69D74"/>
<path d="M34.4839 19.3378C34.929 19.3378 35.2896 18.977 35.2896 18.5321V13.1746C35.2896 12.7296 34.929 12.3689 34.4839 12.3689C34.0388 12.3689 33.6782 12.7296 33.6782 13.1746V18.5321C33.6782 18.977 34.0388 19.3378 34.4839 19.3378Z" fill="#B69D74"/>
<path d="M27.4648 18.535C27.4656 18.7487 27.5513 18.9533 27.703 19.1039C27.8538 19.2538 28.0579 19.3378 28.2705 19.3378H28.2735C28.3194 19.3375 29.4022 19.3335 29.8354 19.3258C31.5219 19.2964 32.7461 17.836 32.7461 15.8533C32.7461 13.7692 31.553 12.3689 29.7769 12.3689H28.2595C28.0457 12.3689 27.8405 12.454 27.6892 12.6054C27.5382 12.7569 27.4534 12.9622 27.4539 13.1761C27.4539 13.1762 27.4577 15.2367 27.4577 15.8474C27.4577 16.5924 27.4648 18.535 27.4648 18.535V18.535ZM29.7769 13.9803C31.0369 13.9803 31.1348 15.414 31.1348 15.8533C31.1348 16.7683 30.7243 17.6987 29.8072 17.7147C29.6358 17.7177 29.3515 17.7202 29.0735 17.7221C29.0715 17.0998 29.0692 16.2754 29.0692 15.8474C29.0692 15.4883 29.0678 14.6287 29.0668 13.9803H29.7769Z" fill="#B69D74"/>
<path d="M22.2632 18.9286C22.687 19.1994 23.1649 19.337 23.6834 19.3378H23.6875C24.133 19.3378 24.5516 19.2406 24.9318 19.0491C25.8689 18.5772 26.3849 17.7988 26.3849 16.8572V13.1746C26.3849 12.7296 26.0242 12.3689 25.5792 12.3689C25.1341 12.3689 24.7735 12.7296 24.7735 13.1746V16.8572C24.7735 17.0884 24.7062 17.3586 24.207 17.6099C24.0516 17.6882 23.8816 17.7263 23.6876 17.7263C23.6869 17.7263 23.6862 17.7263 23.6855 17.7263C23.4758 17.726 23.2942 17.675 23.1307 17.5706C22.7405 17.3213 22.6622 17.1143 22.6622 16.8611V13.1746C22.6622 12.7296 22.3015 12.3689 21.8565 12.3689C21.4114 12.3689 21.0508 12.7296 21.0508 13.1746V16.8612C21.0508 17.719 21.4587 18.4145 22.2632 18.9286V18.9286Z" fill="#B69D74"/>
<path d="M37.324 13.9803H37.9917V18.5321C37.9917 18.977 38.3524 19.3378 38.7974 19.3378C39.2425 19.3378 39.6031 18.977 39.6031 18.5321V13.9803H40.2828C40.7279 13.9803 41.0885 13.6195 41.0885 13.1746C41.0885 12.7296 40.7279 12.3689 40.2828 12.3689H37.324C36.8789 12.3689 36.5183 12.7296 36.5183 13.1746C36.5183 13.6195 36.879 13.9803 37.324 13.9803Z" fill="#B69D74"/>
<path d="M21.0446 39.9417C21.1054 39.9417 21.1664 39.9395 21.2273 39.9351C22.0685 39.8738 22.8184 39.3988 23.233 38.6645L26.9964 32.0006C27.6779 30.7941 27.2506 29.2581 26.0441 28.5766C24.8379 27.8955 23.3018 28.3225 22.6202 29.529L20.7154 32.9021L20.1762 32.2067C19.765 31.6763 19.1717 31.3377 18.5057 31.2533C17.8398 31.1689 17.1809 31.3491 16.6504 31.7604C15.5554 32.6093 15.3552 34.191 16.2042 35.286L19.0589 38.9685C19.5313 39.5779 20.2737 39.9417 21.0446 39.9417ZM17.6376 33.0339C17.7974 32.9101 17.9894 32.8447 18.1883 32.8447C18.2264 32.8447 18.2649 32.8471 18.3033 32.852C18.5423 32.8822 18.7551 33.0037 18.9026 33.1941L20.1841 34.8471C20.3495 35.0603 20.6112 35.1766 20.8795 35.157C21.1485 35.1375 21.3899 34.9845 21.5224 34.7497L24.0232 30.3216C24.2677 29.8888 24.8189 29.7354 25.2517 29.9799C25.6845 30.2244 25.8378 30.7754 25.5934 31.2083L21.83 37.8722C21.6812 38.1356 21.4121 38.3061 21.1104 38.328C20.8102 38.3499 20.5153 38.2171 20.3324 37.9812L17.4778 34.2989C17.173 33.9059 17.2449 33.3384 17.6376 33.0339V33.0339Z" fill="#B69D74"/>
</svg>
