<svg width="30" height="30" viewBox="0 0 30 30" fill="none" xmlns="http://www.w3.org/2000/svg">
<path d="M25.6131 4.38811C19.7639 -1.4627 10.2434 -1.4627 4.39416 4.38811C1.56078 7.22338 0 10.9922 0 15.0004C0 19.0087 1.56078 22.7775 4.39416 25.6116C7.31937 28.5376 11.1615 30 15.0036 30C18.8457 30 22.6879 28.5376 25.613 25.6116C31.4623 19.7608 31.4623 10.24 25.6131 4.38811ZM23.9698 23.9678C19.0259 28.9131 10.9813 28.9131 6.03744 23.9678C3.64339 21.5731 2.32432 18.3879 2.32432 15.0004C2.32432 11.6129 3.64339 8.4277 6.03744 6.03184C10.9813 1.0866 19.0259 1.08778 23.9698 6.03184C28.9125 10.9771 28.9125 19.0238 23.9698 23.9678Z" fill="#767676"/>
<path d="M20.0114 18.2116L16.7213 14.9253L20.0114 11.6389C20.4646 11.1856 20.4646 10.4497 20.0126 9.99516C19.5582 9.53947 18.8225 9.54064 18.3681 9.99399L15.0757 13.2827L11.7833 9.99399C11.3289 9.54064 10.5932 9.53947 10.1388 9.99516C9.68562 10.4497 9.68562 11.1855 10.14 11.6389L13.4301 14.9253L10.14 18.2116C9.68562 18.665 9.68562 19.4008 10.1388 19.8554C10.3655 20.0832 10.6641 20.196 10.9617 20.196C11.2592 20.196 11.5567 20.082 11.7834 19.8565L15.0758 16.5678L18.3682 19.8565C18.5948 20.0832 18.8923 20.196 19.1899 20.196C19.4874 20.196 19.7861 20.082 20.0127 19.8554C20.4658 19.4008 20.4658 18.665 20.0114 18.2116Z" fill="#767676"/>
</svg>
