<svg width="51" height="55" viewBox="0 0 51 55" fill="none" xmlns="http://www.w3.org/2000/svg">
<path d="M49.4056 36.9353C48.9602 36.9353 48.5994 37.2963 48.5994 37.7415V47.0197C48.5994 47.8949 47.8874 48.6069 47.0122 48.6069H23.7902V46.2368C23.7902 45.9947 23.7429 45.6856 23.5807 45.346C24.5791 44.9799 25.4029 44.5325 25.9711 44.0056H27.5964C28.8902 44.0056 29.9427 42.953 29.9427 41.6592C29.9427 40.3654 28.8902 39.3129 27.5964 39.3129H26.8294V37.7609C26.8294 37.7428 26.8287 37.7244 26.8281 37.7062H27.5964C28.8902 37.7062 29.9427 36.6536 29.9427 35.3598C29.9427 34.066 28.8902 33.0135 27.5964 33.0135H25.6002C24.8709 33.0135 24.2183 33.348 23.7877 33.8716C23.7888 33.8433 23.7903 33.8152 23.7903 33.7866V30.5518C24.221 31.0733 24.8724 31.4064 25.6001 31.4064H27.5963C28.8901 31.4064 29.9426 30.3539 29.9426 29.0601C29.9426 27.7663 28.8901 26.7138 27.5963 26.7138H26.8293V23.5667H27.5963C28.8901 23.5667 29.9426 22.5142 29.9426 21.2204C29.9426 19.9266 28.8901 18.8741 27.5963 18.8741H25.6C24.9615 18.8741 24.356 19.138 23.9191 19.5855C21.7044 18.6948 18.5058 18.2379 15.3284 18.2379C14.3194 18.2379 13.3084 18.2841 12.3272 18.3755V3.19955C12.3272 2.32439 13.0392 1.6124 13.9143 1.6124H20.4384C20.8836 1.6124 21.2446 1.25146 21.2446 0.8062C21.2446 0.360937 20.8836 0 20.4384 0H13.9143C12.15 0 10.7148 1.43537 10.7148 3.19955V18.5717C6.86649 19.154 3.82764 20.4929 3.82764 22.539V26.2782C1.32353 27.2461 0.788574 28.4413 0.788574 29.2848V33.7866C0.788574 35.1187 2.07677 36.151 4.03743 36.8701C3.87534 37.2094 3.82775 37.5183 3.82775 37.7609V42.2627C3.82775 42.5758 3.89918 42.8723 4.03357 43.1521C1.37993 44.1184 0.788574 45.3409 0.788574 46.2369V50.7387C0.788574 53.4212 5.8448 54.696 10.1746 54.9726C10.1922 54.9737 10.2095 54.9743 10.2267 54.9743C10.6485 54.9743 11.0033 54.6463 11.0306 54.2195C11.0589 53.7751 10.7217 53.3918 10.2773 53.3634C4.7794 53.0123 2.40097 51.4553 2.40097 50.7387V48.5458C4.51729 49.86 8.41916 50.5376 12.2894 50.5376C16.1595 50.5376 20.0614 49.86 22.1777 48.5458V50.7387C22.1777 51.5423 19.3982 53.1152 13.8602 53.3886C13.4155 53.4105 13.0727 53.7888 13.0947 54.2335C13.116 54.6648 13.4723 55 13.8992 55C13.9126 55 13.926 54.9997 13.9396 54.999C18.8427 54.757 23.7902 53.3458 23.7902 50.7387V50.2195H47.0123C48.7766 50.2195 50.2119 48.7841 50.2119 47.02V37.7417C50.2119 37.2964 49.8508 36.9353 49.4056 36.9353ZM26.8293 42.2627V40.9255H27.5963V40.9254C28.001 40.9254 28.3301 41.2545 28.3301 41.6592C28.3301 42.0639 28.0008 42.3931 27.5963 42.3931H26.8251C26.8279 42.35 26.8293 42.3064 26.8293 42.2627ZM25.6001 34.6259H27.5963C28.001 34.6259 28.3301 34.955 28.3301 35.3597C28.3301 35.7643 28.0008 36.0936 27.5963 36.0936H26.0584C25.7712 35.808 25.3858 35.5222 24.8758 35.2464C24.9305 34.8956 25.234 34.6259 25.6001 34.6259ZM25.2169 37.7608C25.2169 38.0812 24.6742 38.8008 22.6404 39.4653C20.6991 40.0996 18.1024 40.449 15.3285 40.449C8.93028 40.449 5.44015 38.6731 5.44015 37.7608C5.43993 37.6211 5.52984 37.4747 5.63254 37.3523C7.59492 37.8392 9.94788 38.0873 12.2892 38.0873C16.2799 38.0873 20.3042 37.3668 22.3699 35.971C24.615 36.6511 25.2169 37.4335 25.2169 37.7608ZM27.5964 28.3264C28.001 28.3263 28.3301 28.6555 28.3301 29.0602C28.3301 29.4649 28.0008 29.794 27.5963 29.794H25.6001C25.3514 29.794 25.1317 29.6694 24.9989 29.4798C25.5949 29.1406 26.0675 28.7558 26.3833 28.3264H27.5964ZM25.6001 20.4869H27.5963C28.001 20.4869 28.3301 20.8161 28.3301 21.2207C28.3301 21.6254 28.0008 21.9545 27.5963 21.9545H26.7418C26.5756 21.4061 26.1767 20.9165 25.597 20.487C25.5981 20.487 25.599 20.4869 25.6001 20.4869ZM8.01655 20.8344C9.95787 20.2001 12.5545 19.8508 15.3284 19.8508C21.7267 19.8508 25.2168 21.6267 25.2168 22.5391C25.2168 22.8595 24.6741 23.5792 22.6403 24.2437C20.699 24.878 18.1023 25.2273 15.3284 25.2273C8.93017 25.2273 5.44004 23.4514 5.44004 22.5391C5.43993 22.2186 5.98273 21.4989 8.01655 20.8344ZM5.43983 24.848C7.55625 26.1622 11.4581 26.8398 15.3283 26.8398C19.1985 26.8398 23.1004 26.1621 25.2167 24.848V27.0409C25.2167 27.2929 24.8806 27.7918 23.7479 28.3166C23.7449 28.3179 23.7421 28.3193 23.7392 28.3205C23.4334 28.4618 23.0705 28.6049 22.6401 28.7455C20.6987 29.3798 18.1022 29.7292 15.3282 29.7292C8.93006 29.7292 5.43983 27.9533 5.43983 27.0408V24.848ZM4.03636 27.9361C5.11939 30.1757 10.2515 31.3416 15.3284 31.3416C16.6452 31.3416 17.9655 31.2629 19.2182 31.1077C17.3237 31.6656 14.8652 31.973 12.2895 31.973C5.89121 31.973 2.40108 30.1971 2.40108 29.2846C2.40097 28.9513 2.91241 28.4297 4.03636 27.9361ZM2.40097 33.7865V31.5936C4.51729 32.9078 8.41916 33.5854 12.2894 33.5854C15.9391 33.5854 19.9906 32.9527 22.1777 31.596V33.7865C22.1777 34.1069 21.635 34.8265 19.6012 35.491C17.6599 36.1254 15.0633 36.4747 12.2894 36.4747C5.8911 36.4748 2.40097 34.699 2.40097 33.7865ZM19.6012 47.9414C17.6599 48.5758 15.0633 48.9251 12.2894 48.9251C5.8911 48.9251 2.40097 47.1492 2.40097 46.2368C2.40097 45.7847 3.29365 45.0405 5.24797 44.4471C7.3138 45.8428 11.338 46.5633 15.3284 46.5633C17.67 46.5633 20.023 46.3152 21.9854 45.8282C22.0874 45.9497 22.1777 46.0968 22.1777 46.2368C22.1777 46.5572 21.635 47.2768 19.6012 47.9414ZM22.6402 43.9671C20.699 44.6015 18.1023 44.9508 15.3283 44.9508C8.93017 44.9508 5.43993 43.1749 5.43993 42.2626V40.0697C7.55625 41.3839 11.4581 42.0615 15.3283 42.0615C19.1985 42.0615 23.1004 41.3839 25.2167 40.0697V42.2626C25.2168 42.583 24.6741 43.3026 22.6402 43.9671Z" fill="#B69D74"/>
<path d="M47.0123 0H24.1124C23.6671 0 23.3062 0.360938 23.3062 0.806201C23.3062 1.25146 23.6671 1.6124 24.1124 1.6124H47.0124C47.8876 1.6124 48.5996 2.32439 48.5996 3.19956V34.0676C48.5996 34.5128 48.9604 34.8738 49.4058 34.8738C49.8512 34.8738 50.212 34.5128 50.212 34.0676V3.19956C50.212 1.43537 48.7766 0 47.0123 0Z" fill="#B69D74"/>
<path d="M45.5702 6.58696C45.5702 6.1417 45.2094 5.78076 44.764 5.78076H16.1626C15.7174 5.78076 15.3564 6.1417 15.3564 6.58696V14.5116C15.3564 14.9568 15.7174 15.3178 16.1626 15.3178H44.7641C45.2095 15.3178 45.5703 14.9568 45.5703 14.5116V6.58696H45.5702ZM43.9578 13.7054H16.9688V7.39316H43.9578V13.7054Z" fill="#B69D74"/>
<path d="M35.3267 18.8744H33.3304C32.0367 18.8744 30.9841 19.9269 30.9841 21.2207C30.9841 22.5145 32.0367 23.567 33.3304 23.567H35.3267C36.6205 23.567 37.673 22.5145 37.673 21.2207C37.673 19.9269 36.6203 18.8744 35.3267 18.8744ZM35.3267 21.9545H33.3304C32.9258 21.9545 32.5966 21.6254 32.5966 21.2207C32.5966 20.816 32.9259 20.4869 33.3304 20.4869H35.3267C35.7313 20.4869 36.0605 20.816 36.0605 21.2207C36.0605 21.6254 35.7312 21.9545 35.3267 21.9545Z" fill="#B69D74"/>
<path d="M43.0566 18.8744H41.0604C39.7666 18.8744 38.7141 19.9269 38.7141 21.2207C38.7141 22.5145 39.7666 23.567 41.0604 23.567H43.0566C44.3504 23.567 45.4029 22.5145 45.4029 21.2207C45.4029 19.9269 44.3504 18.8744 43.0566 18.8744ZM43.0566 21.9545H41.0604C40.6558 21.9545 40.3266 21.6254 40.3266 21.2207C40.3266 20.816 40.6559 20.4869 41.0604 20.4869H43.0566C43.4613 20.4869 43.7904 20.816 43.7904 21.2207C43.7904 21.6254 43.4613 21.9545 43.0566 21.9545Z" fill="#B69D74"/>
<path d="M35.3267 26.7139H33.3304C32.0367 26.7139 30.9841 27.7664 30.9841 29.0602C30.9841 30.354 32.0367 31.4065 33.3304 31.4065H35.3267C36.6205 31.4065 37.673 30.354 37.673 29.0602C37.673 27.7664 36.6203 26.7139 35.3267 26.7139ZM35.3267 29.7941H33.3304C32.9258 29.7941 32.5966 29.4649 32.5966 29.0603C32.5966 28.6556 32.9259 28.3265 33.3304 28.3265H35.3267C35.7313 28.3265 36.0605 28.6556 36.0605 29.0603C36.0604 29.4649 35.7312 29.7941 35.3267 29.7941Z" fill="#B69D74"/>
<path d="M43.0566 26.7139H41.0604C39.7666 26.7139 38.7141 27.7664 38.7141 29.0602C38.7141 30.354 39.7666 31.4065 41.0604 31.4065H43.0566C44.3504 31.4065 45.4029 30.354 45.4029 29.0602C45.4029 27.7664 44.3504 26.7139 43.0566 26.7139ZM43.0566 29.7941H41.0604C40.6558 29.7941 40.3266 29.4649 40.3266 29.0603C40.3266 28.6556 40.6559 28.3265 41.0604 28.3265H43.0566C43.4613 28.3265 43.7904 28.6556 43.7904 29.0603C43.7904 29.4649 43.4613 29.7941 43.0566 29.7941Z" fill="#B69D74"/>
<path d="M35.3267 33.0134H33.3304C32.0367 33.0134 30.9841 34.0659 30.9841 35.3597C30.9841 36.6535 32.0367 37.7061 33.3304 37.7061H35.3267C36.6205 37.7061 37.673 36.6535 37.673 35.3597C37.673 34.0659 36.6203 33.0134 35.3267 33.0134ZM35.3267 36.0936H33.3304C32.9258 36.0936 32.5966 35.7643 32.5966 35.3597C32.5966 34.955 32.9259 34.6259 33.3304 34.6259H35.3267C35.7313 34.6259 36.0605 34.955 36.0605 35.3597C36.0604 35.7643 35.7312 36.0936 35.3267 36.0936Z" fill="#B69D74"/>
<path d="M43.0566 33.0134H41.0604C39.7666 33.0134 38.7141 34.0659 38.7141 35.3597C38.7141 36.6535 39.7666 37.7061 41.0604 37.7061H43.0566C44.3504 37.7061 45.4029 36.6535 45.4029 35.3597C45.4029 34.0659 44.3504 33.0134 43.0566 33.0134ZM43.0566 36.0936H41.0604C40.6558 36.0936 40.3266 35.7643 40.3266 35.3597C40.3266 34.955 40.6559 34.6259 41.0604 34.6259H43.0566C43.4613 34.6259 43.7904 34.955 43.7904 35.3597C43.7904 35.7643 43.4613 36.0936 43.0566 36.0936Z" fill="#B69D74"/>
<path d="M35.3267 39.3129H33.3304C32.0367 39.3129 30.9841 40.3654 30.9841 41.6592C30.9841 42.953 32.0367 44.0056 33.3304 44.0056H35.3267C36.6205 44.0056 37.673 42.953 37.673 41.6592C37.6729 40.3654 36.6203 39.3129 35.3267 39.3129ZM35.3267 42.393H33.3304C32.9258 42.393 32.5966 42.0637 32.5966 41.6591C32.5966 41.2544 32.9259 40.9253 33.3304 40.9253H35.3267C35.7313 40.9253 36.0605 41.2544 36.0605 41.6591C36.0604 42.0637 35.7312 42.393 35.3267 42.393Z" fill="#B69D74"/>
<path d="M43.0566 39.3129H41.0604C39.7666 39.3129 38.7141 40.3654 38.7141 41.6592C38.7141 42.953 39.7666 44.0056 41.0604 44.0056H43.0566C44.3504 44.0056 45.4029 42.953 45.4029 41.6592C45.4029 40.3654 44.3504 39.3129 43.0566 39.3129ZM43.0566 42.393H41.0604C40.6558 42.393 40.3266 42.0637 40.3266 41.6591C40.3266 41.2544 40.6559 40.9253 41.0604 40.9253H43.0566C43.4613 40.9253 43.7904 41.2544 43.7904 41.6591C43.7904 42.0637 43.4613 42.393 43.0566 42.393Z" fill="#B69D74"/>
<path d="M8.10392 15.9177H5.37798C4.93271 15.9177 4.57178 16.2787 4.57178 16.7239C4.57178 17.1692 4.93271 17.5301 5.37798 17.5301H8.10392C8.54918 17.5301 8.91012 17.1692 8.91012 16.7239C8.91012 16.2787 8.54918 15.9177 8.10392 15.9177Z" fill="#B69D74"/>
<path d="M8.10392 13.4194H5.37798C4.93271 13.4194 4.57178 13.7804 4.57178 14.2256C4.57178 14.6709 4.93271 15.0318 5.37798 15.0318H8.10392C8.54918 15.0318 8.91012 14.6709 8.91012 14.2256C8.91012 13.7804 8.54918 13.4194 8.10392 13.4194Z" fill="#B69D74"/>
<path d="M8.09844 10.6478C7.65317 10.6478 7.29224 11.0087 7.29224 11.454C7.29224 11.8992 7.65317 12.2602 8.09844 12.2602H8.10918C8.55444 12.2602 8.91001 11.8992 8.91001 11.454C8.91001 11.0087 8.5437 10.6478 8.09844 10.6478Z" fill="#B69D74"/>
</svg>
