<svg width="15" height="24" viewBox="0 0 15 24" fill="none" xmlns="http://www.w3.org/2000/svg">
<path d="M0.220993 12.8804C-0.392053 14.0854 0.303999 14.6614 1.89212 15.6453C3.24222 16.4793 5.10736 16.7843 6.30545 16.9063L5.30138 17.8722C3.87827 19.2272 2.52817 20.5391 1.5841 21.4481C0.209992 22.765 2.42216 24.8779 3.79526 23.589L7.51255 20.0041C8.93565 21.3731 10.2998 22.685 11.2298 23.594C12.6039 24.8879 14.8151 22.793 13.456 21.4531L9.73871 17.8772L8.72064 16.9113C9.93373 16.7893 11.7709 16.4663 13.105 15.6503L13.104 15.6493C14.6921 14.6604 15.3881 14.0854 14.7841 12.8804C14.4191 12.1965 13.435 11.6245 12.1249 12.6135C12.1249 12.6135 10.3558 13.9684 7.50254 13.9684C4.64833 13.9684 2.88019 12.6135 2.88019 12.6135C1.5701 11.6195 0.58202 12.1965 0.220993 12.8804Z" fill="white"/>
<path d="M7.49965 12.1415C10.9779 12.1415 13.8181 9.42357 13.8181 6.07772C13.8181 2.71788 10.9779 0 7.49965 0C4.02039 0 1.18018 2.71788 1.18018 6.07772C1.18018 9.42357 4.02039 12.1415 7.49965 12.1415ZM7.49965 3.07886C9.20878 3.07886 10.6029 4.4198 10.6029 6.07772C10.6029 7.72165 9.20878 9.06259 7.49965 9.06259C5.79052 9.06259 4.39642 7.72165 4.39642 6.07772C4.39542 4.4188 5.78952 3.07886 7.49965 3.07886Z" fill="white"/>
</svg>
