<svg width="20" height="16" viewBox="0 0 20 16" fill="none" xmlns="http://www.w3.org/2000/svg">
<path d="M5.28924 0.907613C8.42388 0.635125 11.5763 0.635125 14.7109 0.907613L16.2211 1.03889C17.2265 1.12629 18.0876 1.72596 18.5337 2.58374C18.5908 2.69347 18.548 2.82633 18.4428 2.89144L12.1769 6.77037C10.833 7.60228 9.1385 7.61974 7.77778 6.81568L1.46995 3.08833C1.36804 3.02811 1.32126 2.90415 1.36719 2.79505C1.77535 1.82548 2.69298 1.1333 3.77901 1.0389L5.28924 0.907613Z" fill="#B69D74"/>
<path d="M1.36206 4.76688C1.20609 4.67472 1.00709 4.7739 0.988912 4.95414C0.735176 7.46977 0.796587 10.0092 1.17314 12.5133C1.37166 13.8334 2.44907 14.8455 3.77901 14.9611L5.28924 15.0924C8.42388 15.3649 11.5763 15.3649 14.7109 15.0924L16.2211 14.9611C17.5511 14.8455 18.6285 13.8334 18.827 12.5133C19.2145 9.93625 19.2683 7.32174 18.9882 4.73428C18.9686 4.55276 18.7662 4.45541 18.611 4.55151L12.9664 8.04576C11.1482 9.1713 8.85566 9.19492 7.01468 8.10707L1.36206 4.76688Z" fill="#B69D74"/>
</svg>
