<svg width="11" height="8" viewBox="0 0 11 8" fill="none" xmlns="http://www.w3.org/2000/svg">
<path d="M6.53203 1.07205C6.2842 0.826801 6.2842 0.42918 6.53203 0.183934C6.77986 -0.0613114 7.18168 -0.0613114 7.42951 0.183934L10.8141 3.53322C11.062 3.77846 11.062 4.17608 10.8141 4.42133L7.42951 7.77061C7.18168 8.01586 6.77986 8.01586 6.53203 7.77061C6.2842 7.52536 6.2842 7.12774 6.53203 6.8825C7.37735 6.046 6.785 4.60526 5.59576 4.60526H0.634615C0.284127 4.60526 0 4.3241 0 3.97727C0 3.63044 0.284127 3.34928 0.634615 3.34928H5.59576C6.785 3.34928 7.37735 1.90854 6.53203 1.07205Z" fill="white"/>
</svg>
