<svg width="23" height="23" viewBox="0 0 23 23" fill="none" xmlns="http://www.w3.org/2000/svg">
<path d="M19.6648 3.30525C17.4798 1.19311 14.6048 0 11.543 0C2.75517 0 -2.76284 9.52092 1.62531 17.0945L0 22.9997L6.07097 21.4166C8.71593 22.8454 10.8827 22.7189 11.5487 22.8033C21.7386 22.8033 26.811 10.4754 19.6504 3.34262L19.6648 3.30525Z" fill="#ECEFF1"/>
<path d="M11.5639 20.8444L11.5581 20.8435H11.5428C8.49339 20.8435 6.54513 19.3993 6.35346 19.3159L2.75976 20.2503L3.72287 16.7572L3.49383 16.3978C2.54509 14.8875 2.04102 13.1482 2.04102 11.357C2.04102 2.93053 12.3382 -1.28321 18.297 4.67276C24.2415 10.5664 20.068 20.8444 11.5639 20.8444Z" fill="white"/>
<path d="M16.7773 13.7107L16.7687 13.7826C16.4802 13.6389 15.0753 12.9517 14.8137 12.8569C14.2262 12.6393 14.392 12.8224 13.2641 14.1142C13.0964 14.3011 12.9296 14.3154 12.645 14.1861C12.3575 14.0423 11.4347 13.7404 10.3422 12.763C9.49117 12.0011 8.92001 11.0667 8.75135 10.7792C8.47056 10.2943 9.05801 10.2253 9.59276 9.21334C9.68859 9.01209 9.63971 8.85397 9.5688 8.71118C9.49692 8.56743 8.92481 7.1587 8.68523 6.59712C8.45523 6.03746 8.21852 6.10838 8.04123 6.10838C7.48924 6.06046 7.08579 6.06813 6.73025 6.43804C5.18352 8.1381 5.57356 9.89183 6.897 11.7567C9.49788 15.1607 10.8836 15.7874 13.4174 16.6576C14.1017 16.8751 14.7255 16.8444 15.2191 16.7735C15.7691 16.6863 16.9124 16.0826 17.151 15.407C17.3954 14.7314 17.3954 14.1707 17.3235 14.0414C17.2526 13.912 17.0648 13.8401 16.7773 13.7107Z" fill="#333947"/>
</svg>
