<svg width="47" height="55" viewBox="0 0 47 55" fill="none" xmlns="http://www.w3.org/2000/svg">
<path d="M45.6368 17.3522C45.1918 17.3522 44.8311 17.7128 44.8311 18.1578V31.8769L36.0782 29.5428C35.9421 29.5065 35.799 29.5065 35.663 29.5428L27.6258 31.686C27.625 31.686 27.6244 31.6859 27.6236 31.6859H19.5936C19.1487 31.6859 18.788 32.0465 18.788 32.4916C18.788 32.9366 19.1487 33.2972 19.5936 33.2972H25.2987V34.9413H19.5936C19.1487 34.9413 18.788 35.3019 18.788 35.747C18.788 36.192 19.1487 36.5527 19.5936 36.5527H25.2987V38.1967H19.5936C19.1487 38.1967 18.788 38.5574 18.788 39.0024C18.788 39.4475 19.1487 39.8081 19.5936 39.8081H25.2987V41.4522H19.5936C19.1487 41.4522 18.788 41.8128 18.788 42.2578C18.788 42.7029 19.1487 43.0635 19.5936 43.0635H25.2987V43.5355C25.2987 43.8563 25.3153 44.175 25.3475 44.4907H19.5935C19.1486 44.4907 18.7879 44.8513 18.7879 45.2964C18.7879 45.7414 19.1486 46.102 19.5935 46.102H25.656C25.8238 46.6956 26.0485 47.27 26.3258 47.8172C26.225 47.7719 26.1135 47.7461 25.9959 47.7461H19.5935C19.1486 47.7461 18.7879 48.1067 18.7879 48.5518C18.7879 48.9968 19.1486 49.3574 19.5935 49.3574H25.9959C26.4105 49.3574 26.7517 49.0441 26.7963 48.6414C27.6006 49.901 28.7012 50.9751 30.0327 51.7459L32.8706 53.3887H3.53352C2.78114 53.3887 2.16894 52.7766 2.16894 52.0241V31.0561C2.16894 30.611 1.80822 30.2504 1.36328 30.2504C0.91834 30.2504 0.557617 30.611 0.557617 31.0561V52.0241C0.557617 53.665 1.89255 55 3.53352 55H43.4665C45.1074 55 46.4424 53.665 46.4424 52.0241V18.1578C46.4424 17.7129 46.0817 17.3522 45.6368 17.3522ZM26.91 43.5354V33.5446L35.8706 31.1552L44.8312 33.5446V43.536C44.8312 46.3365 43.3254 48.9481 40.9014 50.3512L35.8706 53.2634L30.8399 50.3512C28.4159 48.948 26.91 46.3363 26.91 43.5354ZM43.4665 53.3887H38.8705L41.7086 51.7458C42.978 51.0109 44.038 50.0007 44.8312 48.8166V52.024C44.8311 52.7766 44.219 53.3887 43.4665 53.3887Z" fill="#B69D74"/>
<path d="M43.4665 0H3.53352C1.89255 0 0.557617 1.33504 0.557617 2.97591V27.2928C0.557617 27.7378 0.91834 28.0984 1.36328 28.0984C1.80822 28.0984 2.16894 27.7378 2.16894 27.2928V9.42423H44.8311V14.3964C44.8311 14.8414 45.1918 15.202 45.6368 15.202C46.0817 15.202 46.4424 14.8414 46.4424 14.3964V2.97591C46.4424 1.33504 45.1075 0 43.4665 0V0ZM2.16894 2.97591C2.16894 2.22342 2.78103 1.61133 3.53352 1.61133H43.4665C44.2189 1.61133 44.8311 2.22342 44.8311 2.97591V7.8129H2.16894V2.97591Z" fill="#B69D74"/>
<path d="M41.7302 3.62701C41.1309 3.62701 40.645 4.11288 40.645 4.71219C40.645 5.3115 41.1309 5.79737 41.7302 5.79737C42.3295 5.79737 42.8154 5.3115 42.8154 4.71219C42.8154 4.11288 42.3295 3.62701 41.7302 3.62701Z" fill="#B69D74"/>
<path d="M37.9323 3.62701C37.333 3.62701 36.8472 4.11288 36.8472 4.71219C36.8472 5.3115 37.333 5.79737 37.9323 5.79737C38.5316 5.79737 39.0175 5.3115 39.0175 4.71219C39.0174 4.11288 38.5316 3.62701 37.9323 3.62701Z" fill="#B69D74"/>
<path d="M34.1506 3.62701C33.5513 3.62701 33.0654 4.11288 33.0654 4.71219C33.0654 5.3115 33.5513 5.79737 34.1506 5.79737C34.7499 5.79737 35.2358 5.3115 35.2358 4.71219C35.2358 4.11288 34.7499 3.62701 34.1506 3.62701Z" fill="#B69D74"/>
<path d="M12.8657 28.9568C17.4984 28.9568 21.2673 25.1879 21.2673 20.5552C21.2673 15.9225 17.4984 12.1536 12.8657 12.1536C8.23301 12.1536 4.46411 15.9225 4.46411 20.5552C4.46411 25.1879 8.23301 28.9568 12.8657 28.9568ZM8.39844 25.6626C8.92588 23.6476 10.7405 22.2255 12.8632 22.2246H12.8656H12.8676C14.9908 22.2257 16.8055 23.6477 17.333 25.6625C16.1381 26.7091 14.5752 27.3454 12.8657 27.3454C11.1562 27.3454 9.5934 26.709 8.39844 25.6626ZM11.067 18.8145C11.067 17.8228 11.8739 17.0159 12.8657 17.0159C13.8575 17.0159 14.6644 17.8228 14.6644 18.8145C14.6644 19.8058 13.8582 20.6125 12.867 20.6132C12.8664 20.6132 12.8658 20.6132 12.8653 20.6132C12.8648 20.6132 12.8645 20.6132 12.8641 20.6132C11.8731 20.6123 11.067 19.8058 11.067 18.8145ZM12.8657 13.765C16.6099 13.765 19.6559 16.811 19.6559 20.5552C19.6559 21.9263 19.2461 23.2029 18.5444 24.2715C17.9075 22.8563 16.7681 21.7426 15.3644 21.1317C15.9294 20.523 16.2757 19.7086 16.2757 18.8145C16.2757 16.9342 14.746 15.4045 12.8657 15.4045C10.9855 15.4045 9.45568 16.9342 9.45568 18.8145C9.45568 19.7085 9.80191 20.5228 10.3668 21.1315C8.96326 21.7424 7.82384 22.8563 7.18704 24.2716C6.48525 23.2029 6.07544 21.9262 6.07544 20.5551C6.07533 16.811 9.12149 13.765 12.8657 13.765Z" fill="#B69D74"/>
<path d="M24.3682 20.0587H41.7303C42.1753 20.0587 42.536 19.6981 42.536 19.253V15.9976C42.536 15.5526 42.1753 15.192 41.7303 15.192H24.3682C23.9232 15.192 23.5625 15.5526 23.5625 15.9976V19.253C23.5625 19.698 23.9231 20.0587 24.3682 20.0587ZM25.1738 16.8033H40.9247V18.4474H25.1738V16.8033Z" fill="#B69D74"/>
<path d="M24.3682 23.314H35.2195C35.6644 23.314 36.0252 22.9533 36.0252 22.5083C36.0252 22.0633 35.6644 21.7026 35.2195 21.7026H24.3682C23.9232 21.7026 23.5625 22.0633 23.5625 22.5083C23.5625 22.9533 23.9231 23.314 24.3682 23.314Z" fill="#B69D74"/>
<path d="M24.3682 26.5694H30.8789C31.3238 26.5694 31.6846 26.2088 31.6846 25.7637C31.6846 25.3187 31.3238 24.9581 30.8789 24.9581H24.3682C23.9232 24.9581 23.5625 25.3187 23.5625 25.7637C23.5625 26.2088 23.9231 26.5694 24.3682 26.5694Z" fill="#B69D74"/>
<path d="M4.46411 35.747C4.46411 36.192 4.82483 36.5527 5.26978 36.5527H13.9509C14.3958 36.5527 14.7565 36.192 14.7565 35.747V32.4916C14.7565 32.0465 14.3958 31.6859 13.9509 31.6859H5.26978C4.82483 31.6859 4.46411 32.0465 4.46411 32.4916V35.747ZM6.07544 33.2973H13.1452V34.9414H6.07544V33.2973Z" fill="#B69D74"/>
<path d="M4.46411 42.2579C4.46411 42.7029 4.82483 43.0635 5.26978 43.0635H13.9509C14.3958 43.0635 14.7565 42.7029 14.7565 42.2579V39.0024C14.7565 38.5574 14.3958 38.1968 13.9509 38.1968H5.26978C4.82483 38.1968 4.46411 38.5574 4.46411 39.0024V42.2579ZM6.07544 39.8081H13.1452V41.4522H6.07544V39.8081Z" fill="#B69D74"/>
<path d="M4.46411 48.5517C4.46411 48.9967 4.82483 49.3573 5.26978 49.3573H13.9509C14.3958 49.3573 14.7565 48.9967 14.7565 48.5517V45.2963C14.7565 44.8512 14.3958 44.4906 13.9509 44.4906H5.26978C4.82483 44.4906 4.46411 44.8512 4.46411 45.2963V48.5517ZM6.07544 46.1019H13.1452V47.746H6.07544V46.1019Z" fill="#B69D74"/>
<path d="M36.2753 51.1313L40.0732 48.937C41.9939 47.8272 43.187 45.7598 43.187 43.5419V35.4267C43.187 35.0618 42.9416 34.7423 42.589 34.6482L36.0781 32.9121C35.942 32.8757 35.7989 32.8757 35.6629 32.9121L29.1522 34.6482C28.7995 34.7423 28.5542 35.0618 28.5542 35.4267V43.5353C28.5542 45.7514 29.7456 47.8178 31.6636 48.9282L35.4686 51.1309C35.5934 51.2032 35.7328 51.2393 35.8722 51.2393C36.0114 51.2394 36.1506 51.2034 36.2753 51.1313ZM32.4709 47.5338C31.049 46.7106 30.1655 45.1785 30.1655 43.5354V36.0457L35.8706 34.5244L41.5758 36.0457V43.5419C41.5758 45.1863 40.6912 46.7189 39.2671 47.5417L35.8726 49.5029L32.4709 47.5338Z" fill="#B69D74"/>
</svg>
