<svg width="47" height="55" viewBox="0 0 47 55" fill="none" xmlns="http://www.w3.org/2000/svg">
<path d="M0.983398 44.2954C1.42834 44.2954 1.78906 43.9348 1.78906 43.4897V2.5416C1.78906 2.02866 2.2064 1.61133 2.71934 1.61133H39.1805C39.6934 1.61133 40.1107 2.02866 40.1107 2.5416V11.0794C40.1107 11.5244 40.4715 11.885 40.9164 11.885C41.3613 11.885 41.7221 11.5244 41.7221 11.0794V2.5416C41.7221 1.14018 40.5819 0 39.1805 0H2.71934C1.31791 0 0.177734 1.14018 0.177734 2.5416V43.4897C0.177734 43.9347 0.538457 44.2954 0.983398 44.2954Z" fill="#B69D74"/>
<path d="M16.8727 9.30069C16.8727 8.00164 15.8159 6.94482 14.5168 6.94482H6.76578C5.46673 6.94482 4.40991 8.00164 4.40991 9.30069V17.0516C4.40991 18.3507 5.46673 19.4076 6.76578 19.4076H14.5168C15.8159 19.4076 16.8727 18.3507 16.8727 17.0516V9.30069ZM15.2613 17.0516C15.2613 17.4622 14.9274 17.7963 14.5168 17.7963H6.76578C6.35521 17.7963 6.02124 17.4623 6.02124 17.0516V9.30069C6.02124 8.89023 6.35521 8.55615 6.76578 8.55615H14.5168C14.9274 8.55615 15.2613 8.89013 15.2613 9.30069V17.0516Z" fill="#B69D74"/>
<path d="M12.2418 11.2321L10.0624 13.4114L9.25762 12.6066C8.94298 12.2919 8.43283 12.292 8.1183 12.6065C7.80366 12.9212 7.80366 13.4313 8.1183 13.7458L9.49277 15.1204C9.6438 15.2715 9.84876 15.3564 10.0624 15.3564C10.2761 15.3564 10.481 15.2715 10.6321 15.1205L13.3811 12.3715C13.6958 12.0567 13.6958 11.5467 13.3811 11.2321C13.0666 10.9175 12.5563 10.9175 12.2418 11.2321Z" fill="#B69D74"/>
<path d="M21.0586 13.765H33.7547C34.1996 13.765 34.5603 13.4043 34.5603 12.9593C34.5603 12.5142 34.1996 12.1536 33.7547 12.1536H21.0586C20.6137 12.1536 20.2529 12.5142 20.2529 12.9593C20.2529 13.4043 20.6137 13.765 21.0586 13.765Z" fill="#B69D74"/>
<path d="M36.6845 8.68109H28.98C28.535 8.68109 28.1743 9.04171 28.1743 9.48676C28.1743 9.9318 28.535 10.2924 28.98 10.2924H36.6845C37.1294 10.2924 37.4902 9.9318 37.4902 9.48676C37.4902 9.04171 37.1294 8.68109 36.6845 8.68109Z" fill="#B69D74"/>
<path d="M21.0586 10.2924H25.1821C25.627 10.2924 25.9878 9.9318 25.9878 9.48676C25.9878 9.04171 25.627 8.68109 25.1821 8.68109H21.0586C20.6137 8.68109 20.2529 9.04171 20.2529 9.48676C20.2529 9.9318 20.6137 10.2924 21.0586 10.2924Z" fill="#B69D74"/>
<path d="M25.9417 15.626C25.4967 15.626 25.136 15.9867 25.136 16.4317C25.136 16.8768 25.4967 17.2374 25.9417 17.2374H30.1736C30.6186 17.2374 30.9793 16.8768 30.9793 16.4317C30.9793 15.9867 30.6186 15.626 30.1736 15.626H25.9417Z" fill="#B69D74"/>
<path d="M21.0586 17.2374H22.1438C22.5887 17.2374 22.9494 16.8768 22.9494 16.4317C22.9494 15.9867 22.5887 15.626 22.1438 15.626H21.0586C20.6137 15.626 20.2529 15.9867 20.2529 16.4317C20.2529 16.8768 20.6137 17.2374 21.0586 17.2374Z" fill="#B69D74"/>
<path d="M16.8727 23.6245C16.8727 22.3255 15.8159 21.2687 14.5168 21.2687H6.76578C5.46673 21.2687 4.40991 22.3255 4.40991 23.6245V31.3755C4.40991 32.6745 5.46673 33.7313 6.76578 33.7313H14.5168C15.8159 33.7313 16.8727 32.6745 16.8727 31.3755V23.6245ZM15.2613 31.3755C15.2613 31.7859 14.9274 32.12 14.5168 32.12H6.76578C6.35521 32.12 6.02124 31.786 6.02124 31.3755V23.6245C6.02124 23.2141 6.35521 22.88 6.76578 22.88H14.5168C14.9274 22.88 15.2613 23.214 15.2613 23.6245V31.3755Z" fill="#B69D74"/>
<path d="M12.2418 25.5558L10.0624 27.7351L9.25762 26.9303C8.94298 26.6157 8.43283 26.6156 8.1183 26.9304C7.80366 27.245 7.80366 27.7551 8.1183 28.0697L9.49277 29.4441C9.65003 29.6014 9.85628 29.68 10.0624 29.68C10.2686 29.68 10.4748 29.6014 10.6321 29.4441L13.3811 26.6952C13.6958 26.3806 13.6958 25.8704 13.3811 25.5559C13.0666 25.2413 12.5564 25.2414 12.2418 25.5558Z" fill="#B69D74"/>
<path d="M34.5603 27.2829C34.5603 26.8378 34.1996 26.4772 33.7547 26.4772H21.0586C20.6137 26.4772 20.2529 26.8378 20.2529 27.2829C20.2529 27.7279 20.6137 28.0886 21.0586 28.0886H33.7547C34.1997 28.0886 34.5603 27.7279 34.5603 27.2829Z" fill="#B69D74"/>
<path d="M37.4902 23.8105C37.4902 23.3654 37.1294 23.0048 36.6845 23.0048H28.98C28.535 23.0048 28.1743 23.3654 28.1743 23.8105C28.1743 24.2555 28.535 24.6161 28.98 24.6161H36.6845C37.1294 24.6161 37.4902 24.2555 37.4902 23.8105Z" fill="#B69D74"/>
<path d="M21.0586 24.6161H25.1821C25.627 24.6161 25.9878 24.2555 25.9878 23.8105C25.9878 23.3654 25.627 23.0048 25.1821 23.0048H21.0586C20.6137 23.0048 20.2529 23.3654 20.2529 23.8105C20.2529 24.2555 20.6137 24.6161 21.0586 24.6161Z" fill="#B69D74"/>
<path d="M30.9793 30.7554C30.9793 30.3104 30.6186 29.9498 30.1736 29.9498H25.9417C25.4967 29.9498 25.136 30.3104 25.136 30.7554C25.136 31.2005 25.4967 31.5611 25.9417 31.5611H30.1736C30.6186 31.5611 30.9793 31.2004 30.9793 30.7554Z" fill="#B69D74"/>
<path d="M21.0586 31.5611H22.1438C22.5887 31.5611 22.9494 31.2005 22.9494 30.7554C22.9494 30.3104 22.5887 29.9498 22.1438 29.9498H21.0586C20.6137 29.9498 20.2529 30.3104 20.2529 30.7554C20.2529 31.2005 20.6137 31.5611 21.0586 31.5611Z" fill="#B69D74"/>
<path d="M14.5168 35.5924H6.76578C5.46673 35.5924 4.40991 36.6493 4.40991 37.9484V45.6993C4.40991 46.9984 5.46673 48.0552 6.76578 48.0552H14.5168C15.8159 48.0552 16.8727 46.9984 16.8727 45.6993V37.9484C16.8727 36.6493 15.8159 35.5924 14.5168 35.5924ZM15.2613 45.6993C15.2613 46.1098 14.9274 46.4438 14.5168 46.4438H6.76578C6.35521 46.4438 6.02124 46.1099 6.02124 45.6993V37.9484C6.02124 37.5378 6.35521 37.2037 6.76578 37.2037H14.5168C14.9274 37.2037 15.2613 37.5377 15.2613 37.9484V45.6993Z" fill="#B69D74"/>
<path d="M12.2418 39.8795L10.0624 42.0589L9.25762 41.2541C8.94298 40.9396 8.43283 40.9394 8.1183 41.2542C7.80366 41.5688 7.80366 42.079 8.1183 42.3935L9.49277 43.768C9.65003 43.9252 9.85628 44.0039 10.0624 44.0039C10.2686 44.0039 10.4748 43.9252 10.6321 43.768L13.3811 41.0189C13.6958 40.7042 13.6958 40.1942 13.3811 39.8795C13.0666 39.565 12.5563 39.565 12.2418 39.8795Z" fill="#B69D74"/>
<path d="M21.0586 38.94H25.1821C25.627 38.94 25.9878 38.5794 25.9878 38.1343C25.9878 37.6893 25.627 37.3287 25.1821 37.3287H21.0586C20.6137 37.3287 20.2529 37.6893 20.2529 38.1343C20.2529 38.5794 20.6137 38.94 21.0586 38.94Z" fill="#B69D74"/>
<path d="M22.1438 45.8848C22.5887 45.8848 22.9494 45.5242 22.9494 45.0792C22.9494 44.6341 22.5887 44.2735 22.1438 44.2735H21.0586C20.6137 44.2735 20.2529 44.6341 20.2529 45.0792C20.2529 45.5242 20.6137 45.8848 21.0586 45.8848H22.1438Z" fill="#B69D74"/>
<path d="M46.795 28.3818C46.7396 28.1754 46.6046 27.9994 46.4195 27.8926L42.6608 25.7227C42.3519 25.5444 41.9743 25.5942 41.722 25.8194V14.8392C41.722 14.3942 41.3612 14.0336 40.9163 14.0336C40.4714 14.0336 40.1106 14.3942 40.1106 14.8392V28.5284L35.0296 37.3291H28.9797C28.5347 37.3291 28.174 37.6897 28.174 38.1347C28.174 38.5798 28.5347 38.9404 28.9797 38.9404H34.0993L33.0251 40.801H21.0584C20.6135 40.801 20.2527 41.1616 20.2527 41.6066C20.2527 42.0517 20.6135 42.4123 21.0584 42.4123H32.0947L31.0201 44.2735H25.9416C25.4966 44.2735 25.1359 44.6341 25.1359 45.0791C25.1359 45.5242 25.4966 45.8848 25.9416 45.8848H30.0897L28.3324 48.9285C27.7763 49.8915 27.5496 50.9839 27.6764 52.0868L27.8253 53.3886H2.71934C2.2064 53.3886 1.78906 52.9713 1.78906 52.4584V47.2495C1.78906 46.8044 1.42834 46.4438 0.983398 46.4438C0.538457 46.4438 0.177734 46.8044 0.177734 47.2495V52.4584C0.177734 53.8598 1.31791 55 2.71934 55H39.1805C40.5819 55 41.7221 53.8598 41.7221 52.4584V37.6406L46.7145 28.9931C46.8214 28.8082 46.8503 28.5883 46.795 28.3818ZM42.0324 33.8803L39.6691 32.5158L40.5997 30.9041L42.963 32.2684L42.0324 33.8803ZM40.1107 52.4584C40.1107 52.9713 39.6934 53.3886 39.1805 53.3886H32.1907C32.7117 52.9821 33.1556 52.4773 33.4866 51.9041L36.6383 46.4461C36.8608 46.0607 36.7288 45.5679 36.3435 45.3454C35.9582 45.1233 35.4654 45.2548 35.2428 45.6403L32.0911 51.0984C31.7151 51.7496 31.1278 52.2734 30.4374 52.5734L29.4051 53.0219L29.2772 51.9034C29.1901 51.1457 29.346 50.3957 29.7278 49.7343L38.8634 33.9113L41.2266 35.2758L37.1226 42.3845C36.9001 42.7698 37.0321 43.2625 37.4175 43.485C37.8027 43.7071 38.2955 43.5754 38.518 43.1901L40.1105 40.4317V52.4584H40.1107ZM43.7686 30.873L41.4054 29.5087L42.553 27.521L44.9163 28.8853L43.7686 30.873Z" fill="#B69D74"/>
</svg>
