<svg width="53" height="53" viewBox="0 0 53 53" fill="none" xmlns="http://www.w3.org/2000/svg">
<path d="M51.4219 33.375C51.6498 33.375 51.8684 33.2845 52.0295 33.1233C52.1907 32.9621 52.2812 32.7435 52.2812 32.5156V29.0781C52.2812 28.8502 52.1907 28.6316 52.0295 28.4705C51.8684 28.3093 51.6498 28.2188 51.4219 28.2188H47.6426C46.5562 28.2176 45.4858 27.9578 44.5198 27.4607C43.5539 26.9636 42.7202 26.2435 42.0879 25.3601C41.2018 24.122 39.962 23.1808 38.5312 22.66V20.4844C38.5312 20.2565 38.4407 20.0379 38.2795 19.8767C38.1184 19.7155 37.8998 19.625 37.6719 19.625H34.2344C34.0065 19.625 33.7879 19.7155 33.6267 19.8767C33.4655 20.0379 33.375 20.2565 33.375 20.4844V22.66C31.9443 23.1808 30.7044 24.1221 29.8183 25.3602C29.186 26.2436 28.3524 26.9636 27.3864 27.4607C26.4205 27.9578 25.35 28.2176 24.2637 28.2188H20.4844C20.2565 28.2188 20.0379 28.3093 19.8767 28.4705C19.7155 28.6316 19.625 28.8502 19.625 29.0781V32.5156C19.625 32.7435 19.7155 32.9621 19.8767 33.1233C20.0379 33.2845 20.2565 33.375 20.4844 33.375H23.3907L21.672 36.8125H20.4844C20.2565 36.8125 20.0379 36.903 19.8767 37.0642C19.7155 37.2254 19.625 37.444 19.625 37.6719V38.1016C19.625 39.583 20.2135 41.0039 21.2611 42.0514C22.3087 43.099 23.7295 43.6875 25.2109 43.6875C26.6924 43.6875 28.1132 43.099 29.1608 42.0514C30.2084 41.0039 30.7969 39.583 30.7969 38.1016V37.6719C30.7969 37.444 30.7063 37.2254 30.5452 37.0642C30.384 36.903 30.1654 36.8125 29.9375 36.8125H28.7499L27.0311 33.375H29.9375C30.0933 33.375 30.2461 33.3327 30.3797 33.2526L33.2027 31.5587C33.2595 31.5246 33.317 31.4917 33.375 31.4599V45.1461L32.0557 47.125H29.0781C28.9185 47.125 28.7621 47.1694 28.6263 47.2533C28.4906 47.3372 28.3809 47.4573 28.3095 47.6L26.5907 51.0375C26.5252 51.1685 26.4943 51.3141 26.5009 51.4605C26.5074 51.6068 26.5513 51.749 26.6283 51.8737C26.7053 51.9983 26.8129 52.1011 26.9409 52.1725C27.0688 52.2438 27.2129 52.2812 27.3594 52.2812H44.5469C44.6934 52.2812 44.8374 52.2438 44.9654 52.1725C45.0933 52.1011 45.2009 51.9983 45.2779 51.8737C45.3549 51.749 45.3988 51.6068 45.4054 51.4605C45.412 51.3141 45.381 51.1685 45.3155 51.0375L43.5968 47.6C43.5254 47.4573 43.4157 47.3372 43.2799 47.2533C43.1442 47.1694 42.9877 47.125 42.8281 47.125H39.8505L38.5312 45.1461V31.4599C38.5892 31.4918 38.6467 31.5246 38.7035 31.5587L41.5266 33.2526C41.6602 33.3327 41.813 33.375 41.9688 33.375H44.8751L43.1564 36.8125H41.9688C41.7408 36.8125 41.5222 36.903 41.3611 37.0642C41.1999 37.2254 41.1094 37.444 41.1094 37.6719V38.1016C41.1094 39.583 41.6979 41.0039 42.7455 42.0514C43.793 43.099 45.2138 43.6875 46.6953 43.6875C48.1768 43.6875 49.5976 43.099 50.6452 42.0514C51.6927 41.0039 52.2812 39.583 52.2812 38.1016V37.6719C52.2812 37.444 52.1907 37.2254 52.0295 37.0642C51.8684 36.903 51.6498 36.8125 51.4219 36.8125H50.2343L48.5155 33.375H51.4219ZM35.0938 21.3438H36.8125V22.2531C36.2415 22.1865 35.6647 22.1865 35.0938 22.2531V21.3438ZM25.2109 41.9688C24.26 41.9676 23.3428 41.6165 22.634 40.9826C21.9252 40.3487 21.4744 39.4761 21.3675 38.5312H29.0544C28.9475 39.4761 28.4967 40.3487 27.7879 40.9826C27.0791 41.6165 26.1619 41.9676 25.2109 41.9688ZM23.5936 36.8125L25.2109 33.5779L26.8282 36.8125H23.5936ZM43.1564 50.5625H28.7499L29.6093 48.8438H42.297L43.1564 50.5625ZM36.9568 45.8829L37.7849 47.125H34.1214L34.9494 45.8829C35.0435 45.7418 35.0938 45.5759 35.0938 45.4062V30.867C35.6629 30.7735 36.2434 30.7735 36.8125 30.867V45.4062C36.8125 45.5759 36.8627 45.7418 36.9568 45.8829ZM39.5878 30.0848H39.5878C38.4898 29.4261 37.2335 29.0781 35.9531 29.0781C34.6727 29.0781 33.4164 29.4261 32.3184 30.0848L29.6995 31.6562H21.3438V29.9375H24.2637C25.6235 29.9361 26.9635 29.6108 28.1727 28.9886C29.3818 28.3663 30.4254 27.465 31.2169 26.3592C31.7554 25.6053 32.4661 24.9909 33.2898 24.567C34.1136 24.143 35.0267 23.9219 35.9531 23.9219C36.8795 23.9219 37.7926 24.143 38.6164 24.5669C39.4402 24.9908 40.1508 25.6052 40.6893 26.3591C41.4809 27.4649 42.5244 28.3663 43.7335 28.9885C44.9427 29.6108 46.2827 29.9361 47.6426 29.9375H50.5625V31.6562H42.2068L39.5878 30.0848ZM46.6953 41.9688C45.7444 41.9676 44.8271 41.6165 44.1183 40.9826C43.4095 40.3487 42.9587 39.4761 42.8518 38.5312H50.5388C50.4319 39.4761 49.9811 40.3487 49.2723 40.9826C48.5635 41.6165 47.6462 41.9676 46.6953 41.9688ZM45.078 36.8125L46.6953 33.5779L48.3126 36.8125H45.078Z" fill="#B69D74"/>
<path d="M35.9531 28.2188C36.9024 28.2188 37.6719 27.4492 37.6719 26.5C37.6719 25.5508 36.9024 24.7812 35.9531 24.7812C35.0039 24.7812 34.2344 25.5508 34.2344 26.5C34.2344 27.4492 35.0039 28.2188 35.9531 28.2188Z" fill="#B69D74"/>
<path d="M15.3281 7.59375H23.9219V9.3125H15.3281V7.59375Z" fill="#B69D74"/>
<path d="M11.0312 7.59375H12.75V9.3125H11.0312V7.59375Z" fill="#B69D74"/>
<path d="M16.1875 13.6094H23.9219V15.3281H16.1875V13.6094Z" fill="#B69D74"/>
<path d="M6.73438 13.6094H14.4688V15.3281H6.73438V13.6094Z" fill="#B69D74"/>
<path d="M20.4844 19.625H31.6562V21.3438H20.4844V19.625Z" fill="#B69D74"/>
<path d="M11.8906 19.625H18.7656V21.3438H11.8906V19.625Z" fill="#B69D74"/>
<path d="M6.73438 19.625H10.1719V21.3438H6.73438V19.625Z" fill="#B69D74"/>
<path d="M6.73438 25.6406H17.9062V27.3594H6.73438V25.6406Z" fill="#B69D74"/>
<path d="M12.75 31.6562H17.9062V33.375H12.75V31.6562Z" fill="#B69D74"/>
<path d="M6.73438 31.6562H10.1719V33.375H6.73438V31.6562Z" fill="#B69D74"/>
<path d="M6.73438 37.6719H17.9062V39.3906H6.73438V37.6719Z" fill="#B69D74"/>
<path d="M13.6094 43.6875H21.3438V45.4062H13.6094V43.6875Z" fill="#B69D74"/>
<path d="M6.73438 43.6875H11.8906V45.4062H6.73438V43.6875Z" fill="#B69D74"/>
<path d="M3.29688 52.2813H24.7812V50.5625H3.29688C3.06903 50.5623 2.8506 50.4716 2.68949 50.3105C2.52839 50.1494 2.43776 49.931 2.4375 49.7031V3.29689C2.43776 3.06905 2.52839 2.85062 2.68949 2.68951C2.8506 2.5284 3.06903 2.43778 3.29688 2.43752H26.7949C26.9848 2.43764 27.1741 2.45856 27.3594 2.49991V11.0313C27.3607 12.1705 27.8138 13.2626 28.6193 14.0682C29.4249 14.8737 30.517 15.3268 31.6562 15.3281H36.8125V13.6094H31.6562C30.9727 13.6086 30.3174 13.3367 29.8341 12.8534C29.3508 12.3701 29.0789 11.7148 29.0781 11.0313V3.65294L39.4948 14.0695C39.735 14.3084 39.9254 14.5925 40.055 14.9054C40.1846 15.2184 40.2509 15.5539 40.25 15.8926V22.2031H41.9688V15.8926C41.9703 15.3281 41.8598 14.7689 41.6438 14.2474C41.4278 13.7258 41.1105 13.2523 40.7102 12.8542L29.8333 1.97741C29.4352 1.57711 28.9617 1.25975 28.4402 1.0437C27.9186 0.827652 27.3594 0.717209 26.7949 0.718766H3.29688C2.61335 0.719548 1.95805 0.991422 1.47473 1.47475C0.991406 1.95807 0.719532 2.61337 0.71875 3.29689V49.7031C0.719532 50.3867 0.991406 51.042 1.47473 51.5253C1.95805 52.0086 2.61335 52.2805 3.29688 52.2813Z" fill="#B69D74"/>
</svg>
