<svg width="14" height="21" viewBox="0 0 14 21" fill="none" xmlns="http://www.w3.org/2000/svg">
<path d="M1.05823 11.1631C0.52692 12.2073 1.13017 12.7065 2.50654 13.5593C3.67662 14.282 5.29308 14.5464 6.33143 14.6521L5.46123 15.4893C4.22787 16.6635 3.05778 17.8006 2.23958 18.5883C1.04869 19.7297 2.9659 21.5609 4.15593 20.4438L7.37757 17.3369C8.61093 18.5233 9.79315 19.6603 10.5992 20.4481C11.7901 21.5695 13.7064 19.7539 12.5286 18.5927L9.30692 15.4936L8.42458 14.6564C9.47593 14.5507 11.0681 14.2708 12.2243 13.5636L12.2235 13.5627C13.5998 12.7057 14.2031 12.2073 13.6796 11.1631C13.3632 10.5703 12.5104 10.0746 11.3749 10.9317C11.3749 10.9317 9.84169 12.1059 7.3689 12.1059C4.89525 12.1059 3.36287 10.9317 3.36287 10.9317C2.22745 10.0702 1.37112 10.5703 1.05823 11.1631V11.1631Z" fill="#B69D74"/>
<path d="M7.36629 10.5226C10.3808 10.5226 12.8423 8.1671 12.8423 5.26736C12.8423 2.35549 10.3808 0 7.36629 0C4.35092 0 1.8894 2.35549 1.8894 5.26736C1.8894 8.1671 4.35092 10.5226 7.36629 10.5226ZM7.36629 2.66835C8.84753 2.66835 10.0558 3.83049 10.0558 5.26736C10.0558 6.6921 8.84753 7.85424 7.36629 7.85424C5.88504 7.85424 4.67682 6.6921 4.67682 5.26736C4.67595 3.82963 5.88417 2.66835 7.36629 2.66835V2.66835Z" fill="#B69D74"/>
</svg>
