<svg width="17" height="17" viewBox="0 0 17 17" fill="none" xmlns="http://www.w3.org/2000/svg">
<path fill-rule="evenodd" clip-rule="evenodd" d="M2.67891 0.855524L6.56172 4.73831L7.14147 4.15852C7.31803 3.98109 7.41714 3.74096 7.41714 3.49065C7.41714 3.24034 7.31803 3.00021 7.14147 2.82277L4.5946 0.275899C4.41716 0.0993526 4.17704 0.000244141 3.92674 0.000244141C3.67643 0.000244141 3.43631 0.0993526 3.25888 0.275899L2.67891 0.855524ZM15.7796 14.6861L15.1713 15.2944C14.8766 15.5985 14.5045 15.8164 14.0951 15.9247C13.6857 16.0329 13.2545 16.0274 12.848 15.9087C11.4549 15.5248 10.1204 14.9532 8.88138 14.2096C7.63907 13.4642 6.50339 12.554 5.50528 11.5038C5.50216 11.5005 5.49895 11.4973 5.49566 11.4942C4.44576 10.4963 3.53575 9.36086 2.79041 8.11884C2.04684 6.87972 1.47523 5.54525 1.09131 4.15209C0.972623 3.74558 0.967112 3.31439 1.07538 2.90498C1.18364 2.49558 1.40157 2.12347 1.70569 1.82877L2.314 1.22043L6.19685 5.10321L5.33435 5.96571C5.28995 6.01012 5.26327 6.06919 5.2593 6.13185C5.25532 6.19452 5.27433 6.25649 5.31275 6.30615C5.66086 6.83807 6.03931 7.3495 6.44622 7.8379C6.85633 8.33058 7.29464 8.79907 7.75897 9.24102C8.20092 9.70535 8.66942 10.1437 9.1621 10.5538C9.65602 10.9652 10.1735 11.3475 10.7119 11.6988C10.7613 11.7309 10.8203 11.7451 10.8789 11.7389C10.9375 11.7328 10.9922 11.7067 11.0339 11.665L11.0344 11.6656L11.8968 10.8032L15.7796 14.6861ZM12.2618 10.4384L16.1445 14.3211L16.7243 13.7414C16.9009 13.5639 17 13.3238 17 13.0735C17 12.8232 16.9009 12.5831 16.7243 12.4056L14.1774 9.85874C14 9.68219 13.7599 9.58307 13.5096 9.58307C13.2593 9.58307 13.0191 9.68219 12.8417 9.85874L12.2618 10.4384Z" fill="#B69D74"/>
</svg>
