<svg width="38" height="26" viewBox="0 0 38 26" fill="none" xmlns="http://www.w3.org/2000/svg">
<path d="M15.2126 5.16262C16.1596 4.85339 16.5567 3.97329 16.129 3.25969L14.6322 0.809656C14.2045 0.12008 13.1659 -0.189385 12.2495 0.12008C9.65297 0.976401 7.42301 2.09438 5.65126 3.45022C3.4824 5.04369 2.01613 6.87526 1.22189 8.89713C0.427663 10.943 0 13.7258 0 17.27V24.5726C0 25.3575 0.824779 25.9998 1.83284 25.9998H13.838C14.846 25.9998 15.6708 25.3575 15.6708 24.5726V15.2244C15.6708 14.4392 14.846 13.7972 13.838 13.7972H8.09505C8.15615 11.3945 8.88928 9.46801 10.2334 8.01679C11.3331 6.85171 12.9826 5.90025 15.2126 5.16262Z" fill="#B69D74"/>
<path d="M36.779 5.16284C37.7259 4.85361 38.1227 3.9735 37.6954 3.2599L36.1986 0.833897C35.7709 0.144083 34.7323 -0.165144 33.8159 0.144083C31.2499 1.0004 29.0502 2.11838 27.2482 3.45043C25.079 5.06793 23.5825 6.8995 22.788 8.92137C21.9937 10.9192 21.5969 13.7025 21.5969 17.2705V24.573C21.5969 25.358 22.4217 26.0002 23.4298 26.0002H35.4349C36.4429 26.0002 37.2677 25.358 37.2677 24.573V15.2248C37.2677 14.4396 36.4429 13.7976 35.4349 13.7976H29.6614C29.7225 11.3949 30.456 9.46847 31.7997 8.01724C32.8995 6.85193 34.549 5.90046 36.779 5.16284Z" fill="#B69D74"/>
</svg>
