<svg width="55" height="55" viewBox="0 0 55 55" fill="none" xmlns="http://www.w3.org/2000/svg">
<path d="M11.1277 49.1766C11.1701 49.1766 11.2127 49.1733 11.2553 49.1664C11.5105 49.1255 11.7306 48.9647 11.847 48.734L17.4116 37.7098C17.612 37.3125 17.4526 36.8281 17.0555 36.6275C16.6583 36.4268 16.1736 36.5865 15.9732 36.9837L10.9103 47.0139L6.97306 43.0766C6.65842 42.7619 6.14838 42.7619 5.83364 43.0766C5.519 43.3912 5.519 43.9014 5.83364 44.2159L10.5582 48.9405C10.7103 49.093 10.9157 49.1766 11.1277 49.1766Z" fill="#B69D74"/>
<path d="M47.3003 23.3391H25.5815C25.1365 23.3391 24.7759 23.6998 24.7759 24.1448C24.7759 24.5897 25.1365 24.9504 25.5815 24.9504H47.3003C47.7454 24.9504 48.106 24.5897 48.106 24.1448C48.106 23.6998 47.7454 23.3391 47.3003 23.3391Z" fill="#B69D74"/>
<path d="M47.2999 28.3712H44.1299C43.6848 28.3712 43.3242 28.7319 43.3242 29.1769C43.3242 29.6218 43.6848 29.9825 44.1299 29.9825H47.2999C47.745 29.9825 48.1056 29.6218 48.1056 29.1769C48.1056 28.7319 47.745 28.3712 47.2999 28.3712Z" fill="#B69D74"/>
<path d="M40.9074 28.3712H19.9719C19.5269 28.3712 19.1663 28.7319 19.1663 29.1769C19.1663 29.6218 19.5269 29.9825 19.9719 29.9825H40.9074C41.3524 29.9825 41.713 29.6218 41.713 29.1769C41.713 28.7319 41.3524 28.3712 40.9074 28.3712Z" fill="#B69D74"/>
<path d="M22.153 15.199C22.568 15.3575 23.0341 15.1488 23.1926 14.7329L23.6353 13.5705H26.6541L27.092 14.7306C27.2137 15.0533 27.5203 15.252 27.8459 15.252C27.9404 15.252 28.0366 15.2352 28.1302 15.1999C28.5465 15.0427 28.7566 14.5779 28.5995 14.1617L26.0516 7.41063C26.0489 7.40322 26.0459 7.39591 26.043 7.38861C25.8941 7.02681 25.5454 6.79327 25.1544 6.79327C25.1542 6.79327 25.1539 6.79327 25.1536 6.79327C24.762 6.7936 24.4133 7.02799 24.2651 7.39032C24.2626 7.39645 24.2601 7.40257 24.2579 7.40869L21.6867 14.1594C21.5284 14.5752 21.7371 15.0407 22.153 15.199ZM25.1516 9.58925L26.046 11.9592H24.249L25.1516 9.58925Z" fill="#B69D74"/>
<path d="M29.651 15.1047C29.792 15.204 29.9539 15.2517 30.1143 15.2517C30.3675 15.2517 30.6168 15.1327 30.7738 14.91L32.6978 12.1788L34.6188 14.9096C34.7756 15.1326 35.025 15.2517 35.2785 15.2517C35.4385 15.2517 35.6003 15.2042 35.7414 15.105C36.1053 14.849 36.1928 14.3464 35.9367 13.9824L33.6835 10.7796L35.5974 8.06275C35.8536 7.69902 35.7664 7.19639 35.4027 6.94008C35.0386 6.68377 34.5364 6.771 34.28 7.13473L32.6986 9.37953L31.1198 7.13516C30.8639 6.77132 30.3616 6.68367 29.9973 6.93976C29.6334 7.19575 29.5459 7.69837 29.802 8.06232L31.7129 10.7788L29.4564 13.982C29.2001 14.3459 29.2874 14.8485 29.651 15.1047Z" fill="#B69D74"/>
<path d="M20.3652 14.4461V8.4046H21.4579C21.9029 8.4046 22.2635 8.04388 22.2635 7.59894C22.2635 7.154 21.9029 6.79327 21.4579 6.79327H17.6765C17.2315 6.79327 16.8708 7.154 16.8708 7.59894C16.8708 8.04388 17.2315 8.4046 17.6765 8.4046H18.7538V14.4461C18.7538 14.8911 19.1145 15.2518 19.5595 15.2518C20.0046 15.2518 20.3652 14.8911 20.3652 14.4461Z" fill="#B69D74"/>
<path d="M51.3781 11.775L43.6823 4.07934C41.3468 1.74377 38.2412 0.457397 34.9379 0.457397H15.7631C13.838 0.457397 12.2719 2.02361 12.2719 3.94861V30.3037C9.59995 30.2714 6.98788 31.1184 4.85277 32.7232C4.49699 32.9905 4.42534 33.4955 4.69282 33.8512C4.96019 34.207 5.46529 34.2785 5.82085 34.0113C7.82384 32.5058 10.3118 31.7687 12.8272 31.9367C15.3656 32.1059 17.7556 33.1909 19.5569 34.9917C23.655 39.091 23.655 45.7601 19.557 49.8581C15.4578 53.9564 8.78849 53.9564 4.69045 49.8583C2.88942 48.0572 1.80424 45.6678 1.63484 43.1303C1.46694 40.6159 2.20353 38.1277 3.70894 36.1243C3.97621 35.7685 3.90445 35.2635 3.54877 34.9962C3.19321 34.729 2.688 34.8007 2.42074 35.1564C0.68351 37.4683 -0.166519 40.3383 0.0270551 43.2377C0.222456 46.1649 1.47403 48.9207 3.55103 50.9977C5.91453 53.3612 9.01837 54.5427 12.1233 54.5425C14.6275 54.5423 17.1323 53.7726 19.2481 52.2347H51.5088C53.4339 52.2347 55 50.6685 55 48.7435V20.5195C55 17.2162 53.7137 14.1107 51.3781 11.775ZM50.2387 12.9145C51.4132 14.0889 52.2818 15.4875 52.8063 17.0135C51.4893 15.7229 49.6878 14.9251 47.7025 14.9251H42.4123C41.3758 14.9251 40.5324 14.0817 40.5324 13.0452V7.7551C40.5324 5.76984 39.7346 3.96816 38.4439 2.65117C39.9699 3.1756 41.3685 4.04421 42.5429 5.21877L50.2387 12.9145ZM53.3887 48.7435C53.3887 49.78 52.5453 50.6234 51.5088 50.6234H21.0539C22.5362 49.0104 23.5017 47.09 23.9497 45.0763H39.3003C39.7453 45.0763 40.1059 44.7155 40.1059 44.2706C40.1059 43.8257 39.7453 43.4649 39.3003 43.4649H24.1959C24.2932 42.3237 24.2302 41.1713 24.0063 40.0446H47.3C47.745 40.0446 48.1056 39.6839 48.1056 39.239C48.1056 38.794 47.745 38.4333 47.3 38.4333H23.5694C23.1495 37.2228 22.5327 36.066 21.7186 35.0135H47.3002C47.7452 35.0135 48.1059 34.6528 48.1059 34.2079C48.1059 33.7629 47.7452 33.4022 47.3002 33.4022H20.2198C18.4429 31.8078 16.2387 30.7756 13.8832 30.4308V3.94861C13.8832 2.91209 14.7266 2.06873 15.7631 2.06873L33.2348 2.06883C36.3702 2.06883 38.9211 4.61967 38.9211 7.7551V13.0452C38.9211 14.9702 40.4872 16.5364 42.4123 16.5364H47.7024C50.8378 16.5364 53.3887 19.0873 53.3887 22.2227V48.7435Z" fill="#B69D74"/>
</svg>
