<svg width="21" height="13" viewBox="0 0 21 13" fill="none" xmlns="http://www.w3.org/2000/svg">
<path d="M17.4744 7.29097C17.1522 6.86631 17.2444 6.67737 17.4744 6.29777C17.4786 6.29344 20.1389 2.45757 20.413 1.15671L20.4147 1.15584C20.5509 0.681774 20.4147 0.333374 19.7561 0.333374H17.5766C17.0218 0.333374 16.7659 0.632374 16.6289 0.966907C16.6289 0.966907 15.5192 3.73851 13.9494 5.53511C13.4428 6.05424 13.2086 6.22064 12.932 6.22064C12.7958 6.22064 12.584 6.05424 12.584 5.58017V1.15584C12.584 0.587307 12.4286 0.333374 11.9693 0.333374H8.54233C8.19432 0.333374 7.9875 0.598574 7.9875 0.845574C7.9875 1.38464 8.7724 1.50857 8.8538 3.02524V6.31597C8.8538 7.03704 8.72838 7.16964 8.45014 7.16964C7.70926 7.16964 5.91104 4.38677 4.8454 1.20177C4.63028 0.583841 4.42014 0.334241 3.86116 0.334241H1.68088C1.05877 0.334241 0.93335 0.633241 0.93335 0.967774C0.93335 1.55884 1.67423 4.49771 4.37861 8.38037C6.18098 11.0306 8.71925 12.4667 11.0283 12.4667C12.4162 12.4667 12.5856 12.1478 12.5856 11.5992C12.5856 9.06677 12.4602 8.82757 13.1554 8.82757C13.4777 8.82757 14.0325 8.99397 15.3282 10.2723C16.8091 11.7881 17.0525 12.4667 17.8814 12.4667H20.0609C20.6822 12.4667 20.9969 12.1478 20.8159 11.5186C20.4014 10.1952 17.6007 7.47297 17.4744 7.29097Z" fill="#B69D74"/>
</svg>
