<svg width="21" height="21" viewBox="0 0 21 21" fill="none" xmlns="http://www.w3.org/2000/svg">
<path d="M17.9095 3.73125C16.0158 1.90073 13.5242 0.866699 10.8706 0.866699C3.25452 0.866699 -1.52776 9.11817 2.2753 15.682L0.866699 20.7998L6.1282 19.4277C8.42051 20.6661 10.2984 20.5564 10.8756 20.6295C19.7068 20.6295 24.1029 9.94539 17.897 3.76364L17.9095 3.73125Z" fill="#B69D74"/>
<path d="M10.8886 18.9319L10.8836 18.9311H10.8704C8.22756 18.9311 6.53906 17.6795 6.37295 17.6072L3.25841 18.417L4.0931 15.3897L3.8946 15.0782C3.07236 13.7693 2.6355 12.2618 2.6355 10.7095C2.6355 3.40655 11.5597 -0.24536 16.724 4.91648C21.8759 10.0243 18.2589 18.9319 10.8886 18.9319Z" fill="#B69D74"/>
<path d="M15.407 12.7493L15.3995 12.8115C15.1495 12.687 13.9319 12.0915 13.7052 12.0092C13.1961 11.8207 13.3398 11.9793 12.3622 13.0989C12.2169 13.2609 12.0723 13.2733 11.8257 13.1612C11.5765 13.0366 10.7767 12.775 9.82988 11.9278C9.09235 11.2676 8.59735 10.4578 8.45117 10.2086C8.20782 9.78836 8.71695 9.72857 9.18039 8.85151C9.26344 8.6771 9.22109 8.54006 9.15963 8.4163C9.09733 8.29172 8.6015 7.07082 8.39386 6.58412C8.19453 6.09908 7.98939 6.16054 7.83574 6.16054C7.35734 6.11902 7.00768 6.12566 6.69955 6.44625C5.35905 7.91964 5.69708 9.43954 6.84407 11.0558C9.09817 14.0059 10.2991 14.5491 12.4951 15.3032C13.0881 15.4917 13.6288 15.4651 14.0565 15.4037C14.5333 15.3281 15.5241 14.8049 15.7309 14.2193C15.9427 13.6338 15.9427 13.1479 15.8804 13.0358C15.8189 12.9237 15.6562 12.8614 15.407 12.7493V12.7493Z" fill="#292F36"/>
</svg>
